<svg xmlns="http://www.w3.org/2000/svg" xml:space="preserve" width="84.6666mm" height="55.0332mm" version="1.1" style="shape-rendering:geometricPrecision; text-rendering:geometricPrecision; image-rendering:optimizeQuality; fill-rule:evenodd; clip-rule:evenodd" viewBox="0 0 8466.66 5503.32" xmlns:xlink="http://www.w3.org/1999/xlink" xmlns:xodm="http://www.corel.com/coreldraw/odm/2003"> <defs> <style type="text/css"> <![CDATA[ .str1 {stroke:#999;stroke-width:35.28;stroke-miterlimit:22.9256} .str0 {stroke:#999;stroke-width:20;stroke-miterlimit:22.9256} .fil1 {fill:none} .fil2 {fill:#999} .fil0 {fill:#999} .fil3 {fill:#999;fill-rule:nonzero} ]]> </style> </defs> <g id="Camada_x0020_1"> <metadata id="CorelCorpID_0Corel-Layer"/> <path class="fil0" d="M1059.27 4720.26l2135 0c0,0 -76.83,-641.47 -777.42,-852.92 -49.71,-15.01 -96.21,-100.35 -79.46,-147.09 12.27,-34.16 21.89,-32.71 49.38,-49.29 203.3,-122.5 308.34,-365.11 308.34,-598.73 0,-369.95 -250.43,-669.86 -559.37,-669.86 -308.95,0 -559.39,299.91 -559.39,669.86 0,234.36 107.78,483.64 315.08,602.77 13.06,22.54 22.97,40.37 24.72,45.25 16.74,46.74 -29.76,132.09 -79.47,147.09 -700.58,211.45 -777.41,852.92 -777.41,852.92z"/> <rect class="fil1 str0" x="1537.91" y="1288.6" width="6105.35" height="790.23" rx="95.59" ry="44.76"/> <rect class="fil1 str0" x="-0" y="0" width="8466.67" height="5503.33" rx="494.42" ry="471.56"/> <polygon class="fil2" points="1228.42,1004.94 1228.42,2314.7 299.29,2314.7 299.29,1004.94 299.29,513.62 299.29,266.31 7920.01,266.31 8157.26,266.31 8157.26,1004.94 8157.26,5037.44 7920.01,5037.44 7920.01,1004.94 "/> <rect class="fil1 str0" x="3610.41" y="2356.56" width="4032.86" height="395.11" rx="63.14" ry="22.38"/> <rect class="fil1 str0" x="3610.41" y="2933.49" width="2016.43" height="395.11" rx="31.57" ry="22.38"/> <rect class="fil1 str0" x="5794.75" y="2933.49" width="1848.53" height="395.11" rx="28.94" ry="22.38"/> <rect class="fil1 str0" x="3610.41" y="3510.33" width="4032.86" height="1068" rx="63.14" ry="60.5"/> <path class="fil3 str1" d="M3348.57 1609.4l-100.07 0 0 314.28 -10.66 0 0 -314.28 -47.35 0 0 -10.43 47.35 0 0 -34.73c0,-30.73 6.26,-56.79 19.01,-77.99 18.67,-31.39 49.21,-47.14 91.72,-47.14l0 10.76c-38.44,0 -66.02,13.98 -82.72,41.93 -11.64,19.19 -17.35,43.38 -17.35,72.44l0 34.73 100.07 0 0 10.43zm527.55 48.03l-10.66 0 0 -48.15 -147.76 0 0 314.4 -10.33 0 0 -324.83 168.75 0 0 58.58zm548.41 111.71l-211.15 0 0 47.71c0,40.49 8.01,68.23 24.16,83.21 13.3,12.09 36.04,18.19 68.23,18.19l113.26 0 0 10.09 -113.26 0c-35.27,0 -60.32,-6.87 -75.36,-20.52 -18.24,-16.42 -27.36,-46.7 -27.36,-90.97l0 -106.17c0,-31.28 10.77,-57.68 32.19,-79.32 21.42,-21.63 47.67,-32.51 78.55,-32.51 30.87,0 57.02,10.88 78.54,32.51 21.43,21.64 32.2,48.04 32.2,79.32l0 58.46zm-10.66 -10.53l0 -47.82c0,-28.18 -9.78,-52.13 -29.34,-71.77 -19.22,-19.75 -42.83,-29.62 -70.74,-29.62 -27.91,0 -51.64,9.87 -71.2,29.62 -19.44,19.64 -29.21,43.59 -29.21,71.77l0 47.82 200.49 0zm532.7 165.07l-10.66 0 0 -226.2c0,-24.52 -8.46,-45.27 -25.37,-62.46 -16.81,-17.08 -37.25,-25.62 -61.53,-25.62l-113.58 0 0 314.28 -10.33 0 0 -324.83 123.91 0c27.25,0 50.32,9.55 69.22,28.63 18.89,19.08 28.34,42.38 28.34,69.89l0 226.31zm490.18 -314.17l-100.07 0 0 314.17 -10.66 0 0 -314.17 -47.35 0 0 -10.43 47.35 0 0 -154.64 10.66 0 0 154.64 100.07 0 0 10.43zm553.91 159.63l-211.15 0 0 47.71c0,40.49 8.02,68.23 24.17,83.21 13.29,12.09 36.04,18.19 68.22,18.19l113.27 0 0 10.09 -113.27 0c-35.27,0 -60.31,-6.87 -75.36,-20.52 -18.24,-16.42 -27.36,-46.7 -27.36,-90.97l0 -106.17c0,-31.28 10.77,-57.68 32.19,-79.32 21.42,-21.63 47.68,-32.51 78.55,-32.51 30.87,0 57.02,10.88 78.55,32.51 21.42,21.64 32.19,48.04 32.19,79.32l0 58.46zm-10.66 -10.53l0 -47.82c0,-28.18 -9.78,-52.13 -29.33,-71.77 -19.22,-19.75 -42.84,-29.62 -70.75,-29.62 -27.9,0 -51.64,9.87 -71.19,29.62 -19.45,19.64 -29.22,43.59 -29.22,71.77l0 47.82 200.49 0z"/> </g> </svg>