<svg xmlns="http://www.w3.org/2000/svg" xml:space="preserve" width="84.6666mm" height="55.0332mm" version="1.1" style="shape-rendering:geometricPrecision; text-rendering:geometricPrecision; image-rendering:optimizeQuality; fill-rule:evenodd; clip-rule:evenodd" viewBox="0 0 8466.66 5503.32" xmlns:xlink="http://www.w3.org/1999/xlink" xmlns:xodm="http://www.corel.com/coreldraw/odm/2003"> <defs> <style type="text/css"> <![CDATA[ .str1 {stroke:#999;stroke-width:35.28;stroke-miterlimit:22.9256} .str0 {stroke:#999;stroke-width:20;stroke-miterlimit:22.9256} .fil0 {fill:none} .fil1 {fill:#999} .fil2 {fill:#999;fill-rule:nonzero} ]]> </style> </defs> <g id="Camada_x0020_1"> <metadata id="CorelCorpID_0Corel-Layer"/> <rect class="fil0 str0" x="0" y="-0" width="8466.67" height="5503.33" rx="494.42" ry="471.56"/> <rect class="fil0 str0" x="1620.58" y="513.62" width="6105.35" height="1801.08" rx="95.59" ry="102.03"/> <line class="fil0 str1" x1="6234.24" y1="4012.92" x2="1679.85" y2= "4012.92" /> <rect class="fil0 str0" x="1620.58" y="4507.01" width="2995.69" height="354.34" rx="46.9" ry="20.07"/> <rect class="fil0 str0" x="5164.15" y="4507.01" width="2607.61" height="354.34" rx="40.83" ry="20.07"/> <path class="fil0 str0" d="M2100.72 4000.1c589.97,-175 1023.63,-170.45 1104.43,-476.25 -1465.5,642.04 -1258.01,-72.84 -274.27,226.43 558.3,169.84 1100.67,538.52 2180.85,35.36 781.73,-364.15 -447.76,-444.68 -1020.39,82.7 -917.57,845.04 -1850.45,-859.13 452.68,216.74 282.53,131.98 572.02,232.06 343.56,414.09"/> <rect class="fil1" x="299.3" y="513.62" width="929.12" height="1801.08"/> <polygon class="fil1" points="8147.36,5247.09 7939.78,5247.09 1620.58,5247.09 1620.58,5037.47 7939.78,5037.47 7939.78,513.62 8300.54,513.62 8300.54,5247.09 "/> <path class="fil2 str1" d="M3553.18 1224.5l-125.85 381.7 -13.57 0 -125.87 -381.03 12.39 -3.85 120.45 364.65 120.46 -365.32 11.99 3.85zm626.67 196.31l-253.31 0 0 57.22c0,48.58 9.62,81.85 28.99,99.81 15.96,14.51 43.24,21.84 81.85,21.84l135.87 0 0 12.11 -135.87 0c-42.3,0 -72.36,-8.25 -90.41,-24.63 -21.87,-19.69 -32.82,-56.03 -32.82,-109.13l0 -127.36c0,-37.53 12.92,-69.2 38.62,-95.16 25.7,-25.95 57.19,-38.99 94.23,-38.99 37.04,0 68.4,13.04 94.23,38.99 25.7,25.96 38.62,57.63 38.62,95.16l0 70.14zm-12.79 -12.64l0 -57.36c0,-33.81 -11.73,-62.56 -35.19,-86.11 -23.06,-23.69 -51.39,-35.54 -84.87,-35.54 -33.48,0 -61.94,11.85 -85.4,35.54 -23.32,23.55 -35.06,52.3 -35.06,86.11l0 57.36 240.52 0zm607.42 -121.38l-12.79 0 0 -57.76 -177.25 0 0 377.17 -12.39 0 0 -389.68 202.43 0 0 70.27zm657.89 239.29c0,57.09 -44.28,85.71 -132.85,85.71 -36.5,0 -79.6,-10.65 -129.01,-31.95l4.74 -11.71c50.87,21.03 92.39,31.55 124.27,31.55 35.45,0 62.08,-3.6 79.47,-10.92 27.15,-11.18 40.6,-32.07 40.6,-62.68 0,-24.49 -10.94,-44.58 -32.82,-60.42 -3.56,-2.93 -10.68,-7.19 -21.09,-12.78 -10.41,-5.59 -24.51,-12.51 -42.17,-20.76l-93.18 -45.25c-20.81,-10.38 -35.97,-20.9 -45.46,-31.55 -12.12,-13.83 -18.19,-31.4 -18.19,-52.7 0,-57.35 33.74,-86.1 101.22,-86.1 41.64,0 82.49,10.78 122.3,32.34l-6.06 11.31c-59.84,-20.76 -98.58,-31.14 -116.24,-31.14 -59.31,0 -88.83,24.48 -88.83,73.59 0,23.96 10.94,43.66 32.82,59.23 2.23,1.86 8.69,5.45 19.24,10.78 10.54,5.32 25.3,12.51 44.01,21.69 7.25,3.33 16.08,7.45 26.49,12.38 10.41,4.92 22.67,10.78 36.9,17.57 30.06,14.5 51,26.48 62.47,35.93 20.96,16.9 31.37,38.87 31.37,65.88zm626.27 -48.05c0,37.53 -12.92,69.21 -38.62,95.16 -25.97,25.69 -57.47,38.6 -94.24,38.6 -37.03,0 -68.52,-12.91 -94.22,-38.6 -25.7,-25.95 -38.62,-57.63 -38.62,-95.16l0 -127.36c0,-37.53 12.92,-69.2 38.62,-95.16 25.7,-25.95 57.19,-38.99 94.22,-38.99 37.04,0 68.41,13.04 94.24,38.99 25.7,25.96 38.62,57.63 38.62,95.16l0 127.36zm-12.79 0.27l0 -127.49c0,-33.81 -11.73,-62.56 -35.19,-86.11 -23.06,-23.69 -51.39,-35.54 -84.88,-35.54 -33.47,0 -61.94,11.85 -85.4,35.54 -23.32,23.55 -35.05,52.3 -35.05,86.11l0 127.49c0,33.8 11.73,62.55 35.05,86.11 23.46,23.69 51.93,35.53 85.4,35.53 33.49,0 61.82,-11.84 84.88,-35.53 23.46,-23.56 35.19,-52.31 35.19,-86.11z"/> </g> </svg>